<?xml version="1.0" standalone="no"?>
<!DOCTYPE svg PUBLIC "-//W3C//DTD SVG 20010904//EN"
 "http://www.w3.org/TR/2001/REC-SVG-20010904/DTD/svg10.dtd">
<svg version="1.0" xmlns="http://www.w3.org/2000/svg"
 width="388.000000pt" height="388.000000pt" viewBox="0 0 388.000000 388.000000"
 preserveAspectRatio="xMidYMid meet">
<metadata>
Created by potrace 1.14, written by Peter Selinger 2001-2017
</metadata>
<g transform="translate(0.000000,388.000000) scale(0.100000,-0.100000)"
fill="#000000" stroke="none">
<path d="M1435 3683 c-321 -29 -686 -192 -914 -410 l-76 -72 90 -1 90 0 220
-370 c121 -204 223 -370 227 -370 13 0 112 158 164 261 104 207 132 356 89
462 -6 15 0 17 53 17 73 0 92 -15 92 -70 0 -97 -130 -347 -322 -618 l-58 -82
0 -415 0 -415 -180 0 -180 0 0 360 0 361 -206 359 c-114 198 -210 360 -213
360 -10 0 -105 -157 -149 -245 -212 -427 -212 -949 -2 -1389 209 -439 635
-769 1119 -867 106 -22 365 -36 453 -25 l56 7 -14 34 c-24 59 -13 218 15 201
4 -3 11 -30 14 -59 5 -51 45 -148 66 -161 5 -3 54 6 109 20 l101 25 88 -88
c116 -115 128 -122 185 -94 56 27 78 64 78 132 0 110 -69 189 -284 322 -177
110 -238 158 -291 224 -58 75 -80 138 -80 233 1 94 32 166 104 233 59 55 111
82 193 102 89 21 152 19 290 -10 148 -31 212 -32 256 -5 l32 20 0 -35 c0 -47
-22 -98 -51 -119 -26 -18 -103 -22 -143 -6 -13 5 -50 32 -82 61 -70 63 -112
81 -189 81 -94 1 -158 -38 -190 -115 -34 -83 -9 -175 69 -250 44 -42 80 -65
283 -180 193 -110 279 -204 303 -332 29 -154 -37 -292 -174 -360 -28 -14 -68
-28 -88 -32 -21 -3 -38 -9 -38 -13 0 -11 107 -65 187 -93 123 -45 232 -60 378
-54 155 6 248 28 380 91 121 57 172 93 269 185 212 205 317 467 303 761 -7
147 -35 258 -97 389 l-50 103 44 72 c124 198 140 450 43 658 -121 259 -379
413 -667 395 -52 -3 -104 -9 -116 -12 -18 -6 -27 4 -62 63 -317 533 -904 831
-1527 775z m663 -1209 c79 -119 145 -215 147 -212 9 9 -16 318 -30 363 -20 66
-19 67 13 63 l27 -3 3 -337 2 -338 -32 1 c-31 0 -35 5 -75 87 -36 75 -272 443
-307 480 -10 10 -12 2 -8 -44 3 -32 -1 -123 -8 -203 -13 -163 -5 -246 30 -293
l21 -28 -29 0 c-70 0 -87 82 -52 261 29 153 30 299 1 364 -12 26 -21 49 -21
51 0 2 39 4 88 4 l87 0 143 -216z m-484 -232 c69 -177 126 -324 126 -327 0 -3
-33 -5 -73 -5 l-72 0 -44 128 c-24 70 -48 131 -52 136 -11 12 -70 -27 -112
-74 -64 -70 -77 -114 -52 -172 6 -15 2 -18 -24 -18 -65 0 -60 79 15 260 72
171 90 261 63 312 -9 17 -8 23 6 31 9 5 31 22 49 37 17 16 34 26 38 22 3 -4
63 -152 132 -330z m1084 242 c63 -13 88 -14 107 -6 29 14 38 2 26 -32 -10 -26
-39 -46 -65 -46 -8 0 -36 18 -61 40 -97 84 -191 35 -223 -115 -49 -230 13
-441 139 -475 68 -19 69 -17 69 161 0 132 -2 159 -14 159 -8 0 -18 5 -21 10
-4 6 28 10 89 10 l96 0 0 -125 0 -125 -37 -35 c-21 -20 -58 -48 -83 -63 -39
-23 -55 -27 -125 -27 -93 0 -141 21 -195 81 -124 142 -112 424 23 539 43 37
109 63 162 64 17 1 67 -6 113 -15z m570 -1211 c-4 -552 -4 -570 -25 -633 -30
-87 -73 -153 -122 -186 -72 -47 -222 -43 -267 8 -19 21 -19 21 6 13 45 -14 83
-9 102 15 46 57 48 86 48 737 l0 613 131 0 130 0 -3 -567z"/>
<path d="M1417 2380 c-18 -51 -78 -252 -86 -289 l-9 -43 48 54 c26 29 64 62
84 73 20 11 36 24 35 30 -1 27 -68 188 -72 175z"/>
</g>
</svg>
