<svg xmlns="http://www.w3.org/2000/svg" width="43.82" height="27.599" viewBox="0 0 43.82 27.599"><g transform="translate(-93.386 -2725.255)"><g transform="translate(93.436 2725.305)"><path d="M44.443,15.976a8.892,8.892,0,0,1-8.863,8.9,8.8,8.8,0,0,1-4.812-1.433.218.218,0,0,0-.119-.035.22.22,0,0,0-.183.1,11.577,11.577,0,0,1-9.71,4.715,12.523,12.523,0,0,1-7.346-2.28h0c-.032-.024-3.236-2.473-3.679-6.1a8.2,8.2,0,0,1,2.1-6.233.22.22,0,1,0-.341-.279,8.623,8.623,0,0,0-2.2,6.569,8.651,8.651,0,0,0,1.263,3.469,7.482,7.482,0,0,1-1.695.2A7.592,7.592,0,1,1,11.136,8.734a.217.217,0,0,0,.175-.019.222.222,0,0,0,.105-.142C12.382,4.359,16.929,1.3,22.23,1.3c4.721,0,8.909,2.436,10.421,6.06a.22.22,0,0,0,.269.126,8.862,8.862,0,0,1,11.523,8.491" transform="translate(-1.012 -1.011)" fill="#f1f0f3" stroke="#132a4e" stroke-width="0.1"/><path d="M29.645,22.818A12.019,12.019,0,0,1,19.758,27.5a11.939,11.939,0,0,1-9.979-4.824,7.942,7.942,0,1,1,.335-15.369C11.224,3.059,15.851,0,21.223,0,26.006,0,30.266,2.435,31.9,6.08a9.241,9.241,0,1,1-2.251,16.738M31.839,6.554a.218.218,0,0,1-.267-.124c-.99-2.362-3.133-4.214-6.272-5.357A12.482,12.482,0,0,0,21.223.437c-5.264,0-9.78,3.025-10.739,7.193a.218.218,0,0,1-.278.16,7.517,7.517,0,1,0-.576,14.468,8.535,8.535,0,0,1-1.254-3.431,8.506,8.506,0,0,1,2.182-6.5.218.218,0,1,1,.339.276A8.089,8.089,0,0,0,8.808,18.77c.44,3.59,3.622,6.012,3.654,6.036h0a12.471,12.471,0,0,0,7.3,2.255A11.513,11.513,0,0,0,29.4,22.4a.218.218,0,0,1,.3-.063A8.8,8.8,0,1,0,31.839,6.554" fill="#132a4e" stroke="#132a4e" stroke-width="0.1"/></g></g></svg>