<svg width="34" height="22" viewBox="0 0 34 22" fill="none" xmlns="http://www.w3.org/2000/svg">
<g clip-path="url(#clip0_3004_18605)">
<mask id="mask0_3004_18605" style="mask-type:luminance" maskUnits="userSpaceOnUse" x="0" y="0" width="34" height="22">
<path d="M32.3 0H1.7C0.761116 0 0 0.820811 0 1.83333V20.1667C0 21.1792 0.761116 22 1.7 22H32.3C33.2389 22 34 21.1792 34 20.1667V1.83333C34 0.820811 33.2389 0 32.3 0Z" fill="white"/>
</mask>
<g mask="url(#mask0_3004_18605)">
<path d="M32.3 0H1.7C0.761116 0 0 0.820811 0 1.83333V20.1667C0 21.1792 0.761116 22 1.7 22H32.3C33.2389 22 34 21.1792 34 20.1667V1.83333C34 0.820811 33.2389 0 32.3 0Z" fill="white"/>
<path d="M34 6.77051H0V8.46351H34V6.77051Z" fill="#DB2E2E"/>
<path d="M34 3.38574H0V5.07875H34V3.38574Z" fill="#DB2E2E"/>
<path d="M34 0H0V1.693H34V0Z" fill="#DB2E2E"/>
<path d="M34 10.1562H0V11.8492H34V10.1562Z" fill="#DB2E2E"/>
<path d="M34 13.5322H0V15.2253H34V13.5322Z" fill="#DB2E2E"/>
<path d="M34 16.9297H0V18.6227H34V16.9297Z" fill="#DB2E2E"/>
<path d="M34 20.3057H0V21.9987H34V20.3057Z" fill="#DB2E2E"/>
<path d="M34 5.08105H0V6.77406H34V5.08105Z" fill="white"/>
<path d="M34 1.69531H0V3.38832H34V1.69531Z" fill="white"/>
<path d="M34 8.46484H0V10.1578H34V8.46484Z" fill="white"/>
<path d="M34 11.8418H0V13.5348H34V11.8418Z" fill="white"/>
<path d="M34 15.2373H0V16.9304H34V15.2373Z" fill="white"/>
<path d="M34 18.623H0V20.316H34V18.623Z" fill="white"/>
<path d="M12.7091 0.0527344H0V10.3042H12.7091V0.0527344Z" fill="#2E4593"/>
<path d="M10.6258 2.0867L10.7548 2.48138L10.4373 2.23211L10.1198 2.48138L10.2488 2.0867L9.92139 1.84781H10.3182L10.4274 1.45312L10.5464 1.84781H10.5563H10.9532L10.6258 2.0867Z" fill="white"/>
<path d="M10.6258 4.16448L10.7548 4.55916L10.4373 4.30988L10.1198 4.55916L10.2488 4.16448V4.15408L9.92139 3.92558H10.3182L10.4274 3.52051L10.5464 3.92558H10.5563H10.9532L10.6258 4.15408H10.6159L10.6258 4.16448Z" fill="white"/>
<path d="M10.6258 6.23123L10.7548 6.62593L10.4373 6.37665L10.1198 6.62593L10.2488 6.23123L9.92139 5.99235H10.3182L10.4274 5.59766L10.5464 5.99235H10.5563H10.9532L10.6258 6.23123Z" fill="white"/>
<path d="M10.6258 8.29959L10.7548 8.69429L10.4373 8.44501L10.1198 8.69429L10.2488 8.29959L9.92139 8.06071H10.3182L10.4274 7.66602L10.5464 8.06071V8.07109L10.5563 8.06071H10.9532L10.6258 8.29959Z" fill="white"/>
<path d="M8.52228 2.0867L8.66118 2.48138L8.33378 2.23211L8.01629 2.48138L8.14527 2.0867L7.81787 1.84781H8.21473L8.32385 1.45312L8.45283 1.84781H8.84968L8.52228 2.0867Z" fill="white"/>
<path d="M8.52228 4.16448L8.66118 4.55916L8.33378 4.30988L8.01629 4.55916L8.14527 4.16448V4.15408L7.81787 3.92558H8.21473L8.32385 3.52051L8.45283 3.92558H8.84968L8.52228 4.15408H8.51235L8.52228 4.16448Z" fill="white"/>
<path d="M8.52228 6.23123L8.66118 6.62593L8.33378 6.37665L8.01629 6.62593L8.14527 6.23123L7.81787 5.99235H8.21473L8.32385 5.59766L8.45283 5.99235H8.84968L8.52228 6.23123Z" fill="white"/>
<path d="M8.52228 8.29959L8.66118 8.69429L8.33378 8.44501L8.01629 8.69429L8.14527 8.29959L7.81787 8.06071H8.21473L8.32385 7.66602L8.45283 8.06071H8.84968L8.52228 8.29959Z" fill="white"/>
<path d="M6.41876 2.0867L6.55766 2.48138L6.23025 2.23211L5.91278 2.48138L6.04175 2.0867L5.71436 1.84781H6.1112L6.22034 1.45312L6.34932 1.84781H6.74616L6.41876 2.0867Z" fill="white"/>
<path d="M6.41876 4.16448L6.55766 4.55916L6.23025 4.30988L5.91278 4.55916L6.04175 4.16448L6.05168 4.15408H6.04175L5.71436 3.92558H6.1112L6.22034 3.52051L6.34932 3.92558H6.74616L6.41876 4.15408V4.16448Z" fill="white"/>
<path d="M6.41876 6.23123L6.55766 6.62593L6.23025 6.37665L5.91278 6.62593L6.04175 6.23123L5.71436 5.99235H6.1112L6.22034 5.59766L6.34932 5.99235H6.74616L6.41876 6.23123Z" fill="white"/>
<path d="M6.41876 8.29959L6.55766 8.69429L6.23025 8.44501L5.91278 8.69429L6.04175 8.29959L5.71436 8.06071H6.1112L6.22034 7.66602L6.34932 8.06071H6.74616L6.41876 8.29959Z" fill="white"/>
<path d="M4.35544 2.0867L4.48442 2.48138L4.16693 2.23211L3.83954 2.48138L3.97844 2.0867L3.64111 1.84781H4.04788L4.15701 1.45312L4.27607 1.84781H4.68284L4.34552 2.0867H4.35544Z" fill="white"/>
<path d="M4.35544 4.16448L4.48442 4.55916L4.16693 4.30988L3.83954 4.55916L3.97844 4.16448V4.15408L3.64111 3.92558H4.04788L4.15701 3.52051L4.27607 3.92558H4.68284L4.34552 4.15408L4.35544 4.16448Z" fill="white"/>
<path d="M4.35544 6.23123L4.48442 6.62593L4.16693 6.37665L3.83954 6.62593L3.97844 6.23123L3.64111 5.99235H4.04788L4.15701 5.59766L4.27607 5.99235H4.68284L4.34552 6.23123H4.35544Z" fill="white"/>
<path d="M4.35544 8.29959L4.48442 8.69429L4.16693 8.44501L3.83954 8.69429L3.97844 8.29959L3.64111 8.06071H4.04788L4.15701 7.66602L4.27607 8.06071H4.68284L4.34552 8.29959H4.35544Z" fill="white"/>
<path d="M2.28204 2.0867L2.41102 2.48138L2.09354 2.23211L1.77607 2.48138L1.90504 2.0867L1.57764 1.84781H1.97449L2.08362 1.45312L2.2126 1.84781H2.60945L2.28204 2.0867Z" fill="white"/>
<path d="M2.28204 4.16448L2.41102 4.55916L2.09354 4.30988L1.77607 4.55916L1.90504 4.16448V4.15408L1.57764 3.92558H1.97449L2.08362 3.52051L2.2126 3.92558H2.60945L2.28204 4.15408H2.27213L2.28204 4.16448Z" fill="white"/>
<path d="M2.28204 6.23123L2.41102 6.62593L2.09354 6.37665L1.77607 6.62593L1.90504 6.23123L1.57764 5.99235H1.97449L2.08362 5.59766L2.2126 5.99235H2.60945L2.28204 6.23123Z" fill="white"/>
<path d="M2.28204 8.29959L2.41102 8.69429L2.09354 8.44501L1.77607 8.69429L1.90504 8.29959L1.57764 8.06071H1.97449L2.08362 7.66602L2.2126 8.06071H2.60945L2.28204 8.29959Z" fill="white"/>
<path d="M11.6473 3.12737L11.7763 3.52205L11.4588 3.27277L11.1315 3.52205L11.2703 3.12737V3.11698L10.9429 2.88847H11.3397L11.4489 2.4834L11.5679 2.88847H11.9748L11.6374 3.11698L11.6473 3.12737Z" fill="white"/>
<path d="M11.6473 5.19412L11.7763 5.58882L11.4588 5.33954L11.1315 5.58882L11.2703 5.19412L10.9429 4.95524H11.3397L11.4489 4.56055L11.5679 4.95524H11.9748L11.6374 5.19412H11.6473Z" fill="white"/>
<path d="M11.6478 7.2719L11.7767 7.66658L11.4592 7.41731L11.1318 7.66658L11.2707 7.2719V7.26151L10.9434 7.033H11.3402L11.4493 6.62793L11.5684 7.033H11.9752L11.6378 7.26151L11.6478 7.2719Z" fill="white"/>
<path d="M11.6478 9.33768L11.7767 9.73237L11.4592 9.4831L11.1318 9.73237L11.2707 9.33768L10.9434 9.10918H11.3402L11.4493 8.7041L11.5684 9.10918H11.9752L11.6378 9.33768H11.6478Z" fill="white"/>
<path d="M11.6477 1.06034L11.7767 1.45502L11.4592 1.21614L11.1318 1.45502L11.2707 1.06034L10.9434 0.821446H11.3402L11.4493 0.426758L11.5683 0.821446H11.9752L11.6378 1.06034H11.6477Z" fill="white"/>
<path d="M9.58381 3.12737L9.7227 3.52205L9.40523 3.27277L9.07783 3.52205L9.21672 3.12737V3.11698L8.87939 2.88847H9.28617L9.3953 2.4834L9.51436 2.88847H9.92112L9.58381 3.11698V3.12737Z" fill="white"/>
<path d="M9.58381 5.19412L9.7227 5.58882L9.40523 5.33954L9.07783 5.58882L9.21672 5.19412L8.87939 4.95524H9.28617L9.3953 4.56055L9.51436 4.95524H9.92112L9.58381 5.19412Z" fill="white"/>
<path d="M9.5838 7.2719L9.72269 7.66658L9.40522 7.41731L9.07782 7.66658L9.21672 7.2719V7.26151L8.87939 7.033H9.28616L9.39529 6.62793L9.51434 7.033H9.92112L9.5838 7.26151V7.2719Z" fill="white"/>
<path d="M9.5838 9.33768L9.72269 9.73237L9.40522 9.4831L9.07782 9.73237L9.21672 9.33768L8.87939 9.10918H9.28616L9.39529 8.7041L9.51434 9.10918H9.92112L9.5838 9.33768Z" fill="white"/>
<path d="M9.5838 1.06034L9.72269 1.45502L9.40521 1.21614L9.07782 1.45502L9.21671 1.06034L8.87939 0.821446H9.28616L9.39529 0.426758L9.51434 0.821446H9.92112L9.5838 1.06034Z" fill="white"/>
<path d="M7.45099 3.12737L7.58989 3.52205L7.26249 3.27277L6.945 3.52205L7.07398 3.12737V3.11698L6.74658 2.88847H7.14343L7.25257 2.4834L7.37162 2.88847H7.38154H7.77839L7.45099 3.11698H7.44106L7.45099 3.12737Z" fill="white"/>
<path d="M7.45099 5.19412L7.58989 5.58882L7.26249 5.33954L6.945 5.58882L7.07398 5.19412L6.74658 4.95524H7.14343L7.25257 4.56055L7.37162 4.95524H7.38154H7.77839L7.45099 5.19412Z" fill="white"/>
<path d="M7.45099 7.2719L7.58988 7.66658L7.26248 7.41731L6.945 7.66658L7.07398 7.2719V7.26151L6.74658 7.033H7.14343L7.25257 6.62793L7.37162 7.033H7.38153H7.77839L7.45099 7.26151H7.44106L7.45099 7.2719Z" fill="white"/>
<path d="M7.45099 9.33768L7.58988 9.73237L7.26248 9.4831L6.945 9.73237L7.07398 9.33768L6.74658 9.10918H7.14343L7.25257 8.7041L7.37162 9.10918H7.38153H7.77839L7.45099 9.33768Z" fill="white"/>
<path d="M7.45099 1.06034L7.58989 1.45502L7.26248 1.21614L6.945 1.45502L7.07398 1.06034L6.74658 0.821446H7.14343L7.25257 0.426758L7.37162 0.821446V0.831833L7.38154 0.821446H7.77839L7.45099 1.06034Z" fill="white"/>
<path d="M5.35773 3.12737L5.49663 3.52205L5.16923 3.27277L4.85174 3.52205L4.98072 3.12737L4.99064 3.11698H4.98072L4.65332 2.88847H5.05017L5.1593 2.4834L5.28828 2.88847H5.68512L5.35773 3.11698V3.12737Z" fill="white"/>
<path d="M5.35773 5.19412L5.49663 5.58882L5.16923 5.33954L4.85174 5.58882L4.98072 5.19412L4.65332 4.95524H5.05017L5.1593 4.56055L5.28828 4.95524H5.68512L5.35773 5.19412Z" fill="white"/>
<path d="M5.35773 7.2719L5.49663 7.66658L5.16923 7.41731L4.85174 7.66658L4.98072 7.2719L4.99064 7.26151H4.98072L4.65332 7.033H5.05017L5.1593 6.62793L5.28828 7.033H5.68512L5.35773 7.26151V7.2719Z" fill="white"/>
<path d="M5.35773 9.33768L5.49663 9.73237L5.16923 9.4831L4.85174 9.73237L4.98072 9.33768L4.65332 9.10918H5.05017L5.1593 8.7041L5.28828 9.10918H5.68512L5.35773 9.33768Z" fill="white"/>
<path d="M5.35773 1.06034L5.49663 1.45502L5.16923 1.21614L4.85174 1.45502L4.98072 1.06034L4.65332 0.821446H5.05017L5.1593 0.426758L5.28828 0.821446H5.68512L5.35773 1.06034Z" fill="white"/>
<path d="M3.31378 3.12737L3.44276 3.52205L3.12528 3.27277L2.79788 3.52205L2.93677 3.12737V3.11698L2.60938 2.88847H3.00623L3.11536 2.4834L3.23441 2.88847H3.64118L3.30387 3.11698L3.31378 3.12737Z" fill="white"/>
<path d="M3.31378 5.19412L3.44276 5.58882L3.12528 5.33954L2.79788 5.58882L2.93677 5.19412L2.60938 4.95524H3.00623L3.11536 4.56055L3.23441 4.95524H3.64118L3.30387 5.19412H3.31378Z" fill="white"/>
<path d="M3.31379 7.2719L3.44276 7.66658L3.12528 7.41731L2.79788 7.66658L2.93678 7.2719V7.26151L2.60938 7.033H3.00623L3.11536 6.62793L3.23441 7.033H3.64119L3.30387 7.26151L3.31379 7.2719Z" fill="white"/>
<path d="M3.31379 9.33768L3.44276 9.73237L3.12528 9.4831L2.79788 9.73237L2.93678 9.33768L2.60938 9.10918H3.00623L3.11536 8.7041L3.23441 9.10918H3.64119L3.30387 9.33768H3.31379Z" fill="white"/>
<path d="M3.31378 1.06034L3.44276 1.45502L3.12528 1.21614L2.79788 1.45502L2.93677 1.06034L2.60938 0.821446H3.00623L3.11536 0.426758L3.23441 0.821446H3.64119L3.30387 1.06034H3.31378Z" fill="white"/>
<path d="M1.23029 3.12737L1.35926 3.52205L1.04178 3.27277L0.724303 3.52205L0.853279 3.12737L0.8632 3.11698H0.853279L0.525879 2.88847H0.922728L1.03186 2.4834L1.15091 2.88847H1.55769L1.23029 3.11698V3.12737Z" fill="white"/>
<path d="M1.23029 5.19412L1.35926 5.58882L1.04178 5.33954L0.724303 5.58882L0.853279 5.19412L0.525879 4.95524H0.922728L1.03186 4.56055L1.15091 4.95524H1.55769L1.23029 5.19412Z" fill="white"/>
<path d="M1.22979 7.2719L1.35877 7.66658L1.04129 7.41731L0.723815 7.66658L0.85279 7.2719L0.862712 7.26151H0.85279L0.525391 7.033H0.92224L1.03137 6.62793L1.15042 7.033H1.55719L1.22979 7.26151V7.2719Z" fill="white"/>
<path d="M1.22979 9.33768L1.35877 9.73237L1.04129 9.4831L0.723815 9.73237L0.85279 9.33768L0.525391 9.10918H0.92224L1.03137 8.7041L1.15042 9.10918H1.55719L1.22979 9.33768Z" fill="white"/>
<path d="M1.23028 1.06034L1.35926 1.45502L1.04178 1.21614L0.724303 1.45502L0.853279 1.06034L0.525879 0.821446H0.922728L1.03186 0.426758L1.15091 0.821446H1.55769L1.23028 1.06034Z" fill="white"/>
</g>
</g>
<defs>
<clipPath id="clip0_3004_18605">
<rect width="34" height="22" fill="white"/>
</clipPath>
</defs>
</svg>
