<svg width="20" height="20" viewBox="0 0 20 20" fill="none" xmlns="http://www.w3.org/2000/svg">
<path d="M3 16V4C3 3.46957 3.23047 2.96086 3.6407 2.58579C4.05094 2.21071 4.60734 2 5.1875 2H16.125C16.3571 2 16.5796 2.08429 16.7437 2.23431C16.9078 2.38434 17 2.58783 17 2.8V17.2C17 17.4122 16.9078 17.6157 16.7437 17.7657C16.5796 17.9157 16.3571 18 16.125 18H5.1875C4.60734 18 4.05094 17.7893 3.6407 17.4142C3.23047 17.0391 3 16.5304 3 16ZM3 16C3 15.4696 3.23047 14.9609 3.6407 14.5858C4.05094 14.2107 4.60734 14 5.1875 14H17M7.375 8L9.125 9.6L12.625 6.4" stroke="#398A8F" stroke-width="1.4" stroke-linecap="round" stroke-linejoin="round"/>
</svg>
