<?xml version="1.0" standalone="no"?>
<!DOCTYPE svg PUBLIC "-//W3C//DTD SVG 20010904//EN"
 "http://www.w3.org/TR/2001/REC-SVG-20010904/DTD/svg10.dtd">
<svg version="1.0" xmlns="http://www.w3.org/2000/svg"
 width="200.000000pt" height="200.000000pt" viewBox="0 0 200.000000 200.000000"
 preserveAspectRatio="xMidYMid meet">
<metadata>
Created by potrace 1.14, written by Peter Selinger 2001-2017
</metadata>
<g transform="translate(0.000000,200.000000) scale(0.100000,-0.100000)"
fill="#000000" stroke="none">
<path d="M1050 1778 c-58 -40 -168 -116 -245 -170 -77 -54 -144 -99 -149 -101
-10 -4 121 -197 135 -197 4 0 16 14 24 31 31 59 124 70 169 20 29 -32 45 -91
34 -123 -13 -37 -54 -68 -89 -68 -15 0 -30 -4 -33 -9 -5 -8 60 -112 112 -179
l18 -23 140 96 c137 95 139 97 136 132 -5 52 17 90 60 108 54 21 88 4 52 -26
-23 -19 -46 -69 -40 -86 6 -16 66 -16 99 -1 27 14 21 -10 -12 -43 -31 -31 -67
-37 -103 -18 -17 9 -40 -3 -164 -87 -79 -54 -144 -102 -144 -106 0 -17 124
-188 137 -188 7 0 13 4 13 9 0 20 51 69 77 74 57 11 117 -32 134 -96 18 -69
-23 -127 -91 -127 -18 0 -30 -5 -30 -13 0 -10 99 -164 126 -196 2 -3 95 60
394 267 66 46 121 87 121 92 1 6 2 19 2 29 1 17 -136 228 -260 402 -24 32 -43
62 -43 66 0 5 17 16 38 26 135 66 237 148 271 216 44 90 -29 138 -141 94 -53
-20 -133 -74 -213 -142 -52 -45 -60 -49 -69 -34 -5 10 -14 22 -18 28 -5 5 -68
96 -139 200 -72 105 -138 196 -147 203 -29 22 -56 12 -162 -60z m872 -222 c13
-18 9 -30 -22 -79 -33 -52 -78 -88 -202 -159 -76 -43 -84 -46 -100 -32 -15 15
-21 13 -62 -16 -25 -18 -43 -36 -41 -40 5 -7 -25 -22 -72 -35 -29 -8 -29 2 2
47 14 21 33 36 42 36 28 -2 106 53 93 66 -5 5 -10 15 -10 22 0 13 120 115 188
159 73 48 163 63 184 31z"/>
<path d="M555 1437 c-33 -23 -153 -106 -268 -185 l-207 -143 63 -92 c36 -51
117 -168 182 -262 64 -93 121 -174 125 -179 5 -5 50 20 102 56 51 35 101 67
110 71 22 8 58 -36 58 -69 0 -29 33 -64 60 -64 29 0 76 26 85 47 22 51 14 78
-28 100 -37 19 -47 30 -47 59 0 15 27 39 100 89 55 38 100 72 100 75 0 4 -30
51 -66 104 -84 124 -82 144 10 160 39 7 57 34 52 75 -13 90 -116 114 -146 35
-6 -13 -22 -29 -37 -35 -32 -12 -36 -8 -125 123 -29 43 -55 77 -58 77 -3 0
-32 -19 -65 -42z"/>
<path d="M988 892 c-121 -79 -166 -115 -161 -128 3 -8 11 -14 18 -14 7 0 24
-12 39 -26 39 -39 36 -93 -6 -140 -75 -80 -175 -54 -192 50 -3 16 -7 31 -10
34 -3 3 -51 -26 -106 -63 l-99 -68 43 -61 c23 -34 87 -125 141 -204 l98 -142
48 -1 c61 -1 70 -1 167 0 l77 1 158 110 c88 60 165 114 173 120 11 10 0 31
-58 115 -71 103 -71 104 -54 129 12 20 25 26 51 26 69 0 92 81 38 135 -32 31
-75 33 -103 3 -11 -12 -20 -27 -20 -33 0 -16 -49 -37 -65 -28 -13 8 -29 29
-111 151 -20 28 -37 52 -37 52 -1 0 -14 -8 -29 -18z"/>
</g>
</svg>
